<svg width="40" height="34" viewBox="0 0 40 34" fill="none" xmlns="http://www.w3.org/2000/svg">
<g clip-path="url(#clip0_8001_1430)">
<path d="M18.0945 33.371C14.8636 33.371 11.7052 32.413 9.01885 30.618C6.33247 28.823 4.23868 26.2717 3.00227 23.2868C1.76587 20.3018 1.44237 17.0173 2.07268 13.8484C2.703 10.6796 4.25882 7.7689 6.5434 5.48432C8.82798 3.19974 11.7387 1.64391 14.9075 1.0136C18.0763 0.383285 21.3609 0.706785 24.3458 1.94319C27.3308 3.1796 29.8821 5.27338 31.6771 7.95977C33.472 10.6462 34.4301 13.8045 34.4301 17.0354C34.4253 21.3664 32.7027 25.5186 29.6402 28.5811C26.5777 31.6436 22.4255 33.3662 18.0945 33.371Z" fill="#83CD20"/>
<path d="M18.094 32.3759C21.1279 32.3759 24.0938 31.4762 26.6164 29.7907C29.1391 28.1051 31.1053 25.7093 32.2663 22.9063C33.4274 20.1032 33.7312 17.0188 33.1393 14.0432C32.5474 11.0675 31.0864 8.33415 28.941 6.18881C26.7957 4.04346 24.0623 2.58246 21.0867 1.99056C18.111 1.39866 15.0266 1.70245 12.2236 2.8635C9.42055 4.02455 7.02476 5.99073 5.33917 8.51339C3.65358 11.036 2.75391 14.0019 2.75391 17.0359C2.7587 21.1028 4.37642 25.0019 7.2522 27.8776C10.128 30.7534 14.027 32.3711 18.094 32.3759Z" fill="#034833"/>
<path d="M38.2725 11.2429C38.0139 11.1472 37.326 10.3352 34.2358 10.5938C33.2014 10.6817 30.2042 11.6282 26.4157 12.81L17.5458 9.23096L14.8719 9.51541L22.0015 14.1883C19.5318 14.9486 16.9329 15.7218 14.4271 16.3941L9.21119 12.7738L7.76562 13.1668L12.1825 18.8094L10.9076 21.4523L12.7566 21.2325L13.9823 19.4611C17.4592 19.3502 20.9201 18.9392 24.3263 18.2328L22.5937 25.2149L24.784 24.2736L28.1768 17.3975C38.8647 14.8425 39.7853 12.8875 39.987 12.3419C40.2042 11.7213 38.5337 11.3411 38.2725 11.2429Z" fill="#83CD20"/>
<path d="M4.25098 28.0279L22.0063 24.7954L22.3425 22.8481L4.25098 28.0279Z" fill="#83CD20"/>
<path d="M2.22656 25.2971L22.692 21.219L23.1058 19.145L2.22656 25.2971Z" fill="#83CD20"/>
<path d="M10.548 20.6289L1.02637 22.589L11.1453 19.4419L10.548 20.6289Z" fill="#83CD20"/>
<path d="M10.6082 17.815L0.4375 20.0984L9.8841 16.9927L10.6082 17.815Z" fill="#83CD20"/>
<path d="M9.04577 15.5207L0 17.6102L8.3217 14.6958L9.04577 15.5207Z" fill="#83CD20"/>
</g>
<defs>
<clipPath id="clip0_8001_1430">
<rect width="40" height="32.6713" fill="white" transform="translate(0 0.703613)"/>
</clipPath>
</defs>
</svg>
